{"title":"The World's Largest Snake 2009","uid":7788475,"size":366948352,"categoryP":"video","categoryS":"other","magnet":"?xt=urn:btih:d84e87005bc6935a0f0a91c9736d08a8a2ba0272&amp;dn=The+World%27s+Largest+Snake+2009&amp;tr=udp%3A%2F%2Ftracker.openbittorrent.com%3A80&amp;tr=udp%3A%2F%2Fopen.demonii.com%3A1337&amp;tr=udp%3A%2F%2Ftracker.coppersurfer.tk%3A6969&amp;tr=udp%3A%2F%2Fexodus.desync.com%3A6969","seeders":0,"leechers":0,"uploader":"arman258","files":1,"time":1351958912,"description":"In 2009, a group of passionate scientists stumbled upon fossils of the titanoboa - the biggest snake of all time. At 48 feet long and weighing well over a tonne, the snake is one of the greatest discoveries since the T-rex.\n\nThe animal is a relative of modern boa constrictors and lived in the rainforest of north-east Colombia 58-60 million years ago. The spectacular palaeontological find deep in the Cerrejon coal mines in Colombia has blown the doors off a lost period in prehistory.\n\nThey had unexpectedly discovered a time after the dinosaurs when the world was once again ruled by super-sized reptiles, battling it out to become the planet's top predators; among them, the gargantuan titanoboa.\n\nUsing pin-sharp CGI and scintillating cutting-edge science, the programme brings back the real lost world.\n\nVideo \nID : 0 \nFormat : MPEG-4 Visual \nFormat profile : Advanced Simple@L5 \nFormat settings, BVOP : 2 \nFormat settings, QPel : No \nFormat settings, GMC : No warppoints \nFormat settings, Matrix : Default (H.263) \nCodec ID : XVID \nCodec ID/Hint : XviD \nDuration : 47mn 12s \nBit rate : 900 Kbps \nWidth : 624 pixels \nHeight : 352 pixels \nDisplay aspect ratio : 16:9 \nFrame rate : 25.000 fps \nColor space : YUV \nChroma subsampling : 4:2:0 \nBit depth : 8 bits \nScan type : Progressive \nCompression mode : Lossy \nBits/(Pixel*Frame) : 0.164 \nStream size : 304 MiB (87%) \nWriting library : XviD 1.2.1 (UTC 2008-12-04) \n\n\n\n\nAudio \nID : 1 \nFormat : MPEG Audio \nFormat version : Version 1 \nFormat profile : Layer 3 \nMode : Joint stereo \nMode extension : MS Stereo \nCodec ID : 55 \nCodec ID/Hint : MP3 \nDuration : 47mn 12s \nBit rate mode : Variable \nBit rate : 128 Kbps \nChannel(s) : 2 channels \nSampling rate : 48.0 KHz \nCompression mode : Lossy \nStream size : 41.8 MiB (12%) \nAlignment : Aligned on interleaves \nInterleave, duration : 24 ms (0.60 video frame) \nInterleave, preload duration : 523 ms \nWriting library : LAME3.98r \nEncoding settings : -m j -V 4 -q 2 -lowpass 17 --abr 128 ","torrent":{"xt":"urn:btih:d84e87005bc6935a0f0a91c9736d08a8a2ba0272","amp;dn":"The+World%27s+Largest+Snake+2009","amp;tr":["udp%3A%2F%2Ftracker.openbittorrent.com%3A80","udp%3A%2F%2Fopen.demonii.com%3A1337","udp%3A%2F%2Ftracker.coppersurfer.tk%3A6969","udp%3A%2F%2Fexodus.desync.com%3A6969"],"infoHash":"d84e87005bc6935a0f0a91c9736d08a8a2ba0272","infoHashBuffer":{"type":"Buffer","data":[216,78,135,0,91,198,147,90,15,10,145,201,115,109,8,168,162,186,2,114]},"announce":[],"urlList":[]}}